<?xml version="1.0" encoding="UTF-8"?>
<svg id="Ebene_2" data-name="Ebene 2" xmlns="http://www.w3.org/2000/svg" version="1.1" viewBox="0 0 256 256">
  <defs>
    <style>
      .cls-1 {
        fill: #95c11f;
        stroke-width: 0px;
      }
    </style>
  </defs>
  <path class="cls-1" d="M144.4,111.66c15.2,0,29.6,0,44.01,0,12.78,0,25.55-.1,38.33.04,8.78.1,15.4,6.41,15.99,14.86.63,8.96-4.9,16.08-13.73,17.5-2.15.34-4.36.36-6.54.36-23.73.02-47.45.01-71.18.02h-6.61c-.22,2.52-.59,4.78-.59,7.03-.04,25.17.02,50.34-.06,75.51-.03,7.81-5.45,14.25-12.72,15.6-7.96,1.48-15.32-2.23-18.29-9.58-.85-2.11-1.01-4.6-1.02-6.92-.07-25.17-.15-50.34.05-75.51.04-4.74-1.25-6.29-6.15-6.24-24.82.23-49.64.17-74.46.07-11.32-.05-18.04-6.11-18.15-15.93-.12-10.2,6.27-16.76,16.65-16.79,25-.07,50.01-.18,75.01.1,5.46.06,7.21-1.3,7.14-6.96-.31-24.62.27-49.25-.32-73.86-.26-11.04,7.64-17.69,15.76-17.85,10.06-.2,16.52,6.93,16.53,18.15,0,24.44,0,48.88.02,73.32,0,2.15.2,4.3.34,7.08Z"/>
</svg>