<?xml version="1.0" encoding="UTF-8"?>
<svg id="Ebene_2" data-name="Ebene 2" xmlns="http://www.w3.org/2000/svg" version="1.1" viewBox="0 0 256 256">
  <defs>
    <style>
      .cls-1 {
        fill: #e30613;
        stroke-width: 0px;
      }
    </style>
  </defs>
  <path class="cls-1" d="M211.83,81.42c-.87,14.73-1.65,29.14-2.57,43.55-1.2,18.78-2.49,37.54-3.74,56.32-.92,13.81-1.67,27.63-2.79,41.41-.88,10.8-9.92,18.84-20.69,18.84-35.94.02-71.88.01-107.82,0-10.88,0-19.53-7.5-20.56-18.26-1.12-11.76-1.85-23.56-2.65-35.36-1.78-26.37-3.51-52.74-5.21-79.12-.58-8.99-1.04-17.98-1.58-27.38h167.62Z"/>
  <path class="cls-1" d="M127.91,59.7c-27.52,0-55.03.05-82.55-.03-12.15-.03-18.99-10.98-13.36-21.12,2.8-5.04,7.38-6.88,12.85-6.9,12.28-.05,24.56-.13,36.84.05,3.17.05,5.05-.81,5.69-3.98.12-.6.56-1.12.71-1.72,3.2-12.71,7.93-15.91,21.88-15.6,13.05.29,26.11.05,39.17.07,10.67.01,14.35,2.83,17.94,12.67,3.8,10.42,1.24,8.32,11.75,8.46,11.04.14,22.08-.08,33.11.08,6.89.1,11.8,4,13.47,10.12,1.65,6.06-.38,12.54-5.7,15.44-2.84,1.55-6.46,2.33-9.73,2.35-27.36.18-54.72.1-82.08.1Z"/>
</svg>