<?xml version="1.0" encoding="UTF-8"?>
<svg id="Ebene_1" data-name="Ebene 1" xmlns="http://www.w3.org/2000/svg" version="1.1" viewBox="0 0 256 256">
  <defs>
    <style>
      .cls-1 {
        fill: #f9b233;
      }

      .cls-1, .cls-2 {
        stroke-width: 0px;
      }

      .cls-2 {
        fill: #fff;
      }
    </style>
  </defs>
  <path class="cls-1" d="M247.15,75.83c-4.05,60.91-23.7,114.67-73.11,153.99-10.24,8.15-22.14,14.35-33.7,20.68-7.97,4.37-16.72,3.9-24.99.06-32.87-15.24-58.28-38.83-76.49-69.95-19.56-33.42-28.87-69.86-30-108.44-.43-14.92,6.72-25.15,20.35-30.93,22.71-9.63,45.44-19.2,68.16-28.81,7.96-3.36,15.73-7.27,23.92-9.91,4.03-1.3,9.37-1.62,13.16-.07,30.99,12.66,61.79,25.8,92.58,38.94,15.07,6.43,21.31,18.21,20.11,34.43Z"/>
  <path class="cls-2" d="M143.65,70.61c.15-6.56-6.8-13.99-15.38-14.19-8.73-.2-16.2,7.3-15.93,16.27.17,5.63.77,11.25,1.16,16.88.8,11.43,1.36,22.89,2.49,34.29.76,7.75,5.57,11.87,12.46,11.7,6.44-.15,10.86-4.47,11.47-12.1,1.36-16.87,2.4-33.77,3.72-52.85Z"/>
  <path class="cls-2" d="M127.93,183.25c8.84,0,16.1-6.98,16.11-15.5.01-8.73-7.6-16.27-16.27-16.11-8.74.16-15.6,7.18-15.64,16-.04,8.86,6.79,15.6,15.81,15.6Z"/>
</svg>
