<?xml version="1.0" encoding="UTF-8"?>
<svg id="Ebene_1" data-name="Ebene 1" xmlns="http://www.w3.org/2000/svg" version="1.1" viewBox="0 0 256 256">
  <defs>
    <style>
      .cls-1 {
        fill: #e30613;
        stroke-width: 0px;
      }
    </style>
  </defs>
  <path class="cls-1" d="M223,39.9c-29-12.3-58.1-24.5-87.1-36.8-2.6-1.1-5.1-1.7-7.7-1.7-2.5,0-5,.6-7.6,1.7-29.5,12.6-59,25.2-88.7,37.4-16,6.6-24.2,17.6-23.3,27,2.7,49,13.1,87.4,35.8,121.8,18.1,27.5,42,48.2,72.1,61.8,3.8,1.7,7.8,2.6,11.7,2.6s8-.9,11.9-2.7c30.9-14,55.3-35.6,73.6-64,21.2-33,31.4-69.5,33.7-108.3,1.3-21.3-4.7-30.5-24.3-38.9ZM224.7,77.4c-2.2,37.5-12.1,69.3-30.1,97.4-16.1,25-37.6,43.7-63.9,55.6-.9.4-1.8.6-2.5.6s-1.5-.2-2.3-.6c-25.7-11.6-46.7-29.7-62.5-53.7-19.5-29.5-29.4-63.3-32.1-109.4,1-1.3,3.8-3.8,9.3-6.1,28.2-11.6,56.8-23.8,84.3-35.5l3.3-1.4c18.2,7.7,36.6,15.5,54.5,23,10.5,4.4,21,8.9,31.5,13.3,7.8,3.3,9.4,5.4,9.6,5.7.2.4,1.4,2.6.9,10.9Z"/>
  <path class="cls-1" d="M149,116c4.4-4,8.5-8.4,12.8-12.7,3.1-3.1,4.2-6.9,3.1-11.2-2.3-9.2-12.7-12.2-20-5.4-5.5,5.1-10.5,10.9-17,17.9h0c-2.3-3.1-3.5-5.1-5.1-6.8-3.9-4.1-7.8-8.2-12.1-11.8-7.4-6.1-17.2-2.5-19.3,6.7-1,4.6.8,8.3,4,11.4,5.3,5.1,10.6,10.1,16.6,15.8-6,5.8-11.5,10.3-16,15.6-2.5,3-4.3,7.3-4.6,11.1-.3,4.6,2.9,8.1,7.6,9.7,4.9,1.8,9,.4,12.6-3,5.5-5.3,10.9-10.8,17.1-16.9,5.5,5.8,10.4,11.1,15.4,16.2,5.7,5.8,12.7,6.1,17.8,1.1,4.7-4.6,4.5-12.1-.7-17.5-4-4.2-8-8.5-12.4-12.3-3.5-3-3-5.1.2-8Z"/>
</svg>