<?xml version="1.0" encoding="UTF-8"?>
<svg id="Ebene_1" data-name="Ebene 1" xmlns="http://www.w3.org/2000/svg" version="1.1" viewBox="0 0 256 256">
  <defs>
    <style>
      .cls-1 {
        fill: #95c11f;
      }

      .cls-1, .cls-2 {
        stroke-width: 0px;
      }

      .cls-2 {
        fill: #fff;
      }
    </style>
  </defs>
  <path class="cls-1" d="M247.19,76.44c-4.14,60.71-23.64,114.33-72.8,153.58-10.23,8.16-22.07,14.42-33.6,20.78-8.11,4.48-17.01,4.1-25.46.17-32.82-15.28-58.21-38.86-76.37-70-19.77-33.91-29.23-70.85-29.86-110-.2-12.53,5.57-22.37,17.13-27.51,23.49-10.43,47.23-20.28,70.88-30.35,7.78-3.31,15.65-6.42,23.35-9.91,5.2-2.35,10.04-2.17,15.25.05,29.15,12.44,58.26,24.97,87.6,36.95,14.43,5.89,25.15,15.2,23.87,36.23Z"/>
  <path class="cls-2" d="M114.1,144.26c-4.58-4.81-8.5-9.28-12.79-13.35-5.5-5.22-12.19-5.23-16.97-.43-4.99,5.02-5.12,11.34,0,16.92,7.01,7.66,14.12,15.25,21.37,22.68,6.18,6.33,14.73,5.62,20.04-1.51,4.52-6.07,8.91-12.24,13.35-18.38,11.97-16.56,23.98-33.09,35.87-49.7,4.29-5.99,4.34-10.45.58-14.92-5.6-6.68-13.51-6.63-18.81.47-10.11,13.55-20.01,27.27-29.99,40.91-4.03,5.5-8.05,11.01-12.66,17.31Z"/>
</svg>
