<?xml version="1.0" encoding="UTF-8"?>
<svg id="Ebene_1" data-name="Ebene 1" xmlns="http://www.w3.org/2000/svg" version="1.1" viewBox="0 0 256 256">
  <defs>
    <style>
      .cls-1 {
        fill: #e30613;
      }

      .cls-1, .cls-2 {
        stroke-width: 0px;
      }

      .cls-2 {
        fill: #fff;
      }
    </style>
  </defs>
  <path class="cls-1" d="M8.59,67.42c-.88-9.44,7.36-20.47,23.33-27.05C61.57,28.16,91.07,15.57,120.58,3c5.23-2.23,10.04-2.21,15.27.02,29.01,12.37,58.1,24.55,87.15,36.84,19.67,8.32,25.58,17.53,24.32,38.86-2.29,38.84-12.46,75.33-33.67,108.29-18.29,28.42-42.7,49.99-73.57,64.02-7.74,3.52-15.82,3.57-23.57.07-30.03-13.59-53.99-34.37-72.08-61.84C21.7,154.78,11.29,116.45,8.59,67.42Z"/>
  <path class="cls-2" d="M127.83,104.67c-2.3-3.12-3.48-5.14-5.06-6.78-3.92-4.05-7.77-8.24-12.11-11.8-7.41-6.08-17.19-2.55-19.29,6.72-1.04,4.58.8,8.26,4.04,11.37,5.3,5.08,10.62,10.14,16.62,15.85-5.99,5.75-11.48,10.27-15.96,15.63-2.49,2.98-4.34,7.28-4.61,11.12-.33,4.62,2.91,8.05,7.57,9.74,4.92,1.78,9.04.39,12.58-3.03,5.53-5.34,10.92-10.82,17.06-16.92,5.49,5.78,10.37,11.1,15.45,16.22,5.74,5.78,12.68,6.1,17.83,1.06,4.69-4.59,4.47-12.06-.71-17.54-4-4.22-8.01-8.47-12.38-12.3-3.47-3.04-2.98-5.13.17-7.98,4.45-4.01,8.53-8.42,12.77-12.66,3.13-3.14,4.17-6.92,3.12-11.16-2.28-9.19-12.68-12.16-20.03-5.4-5.55,5.11-10.47,10.91-17.05,17.86Z"/>
</svg>
