<?xml version="1.0" encoding="UTF-8"?>
<svg id="Ebene_1" data-name="Ebene 1" xmlns="http://www.w3.org/2000/svg" version="1.1" viewBox="0 0 256 256">
  <defs>
    <style>
      .cls-1 {
        fill: #95c11f;
        stroke-width: 0px;
      }
    </style>
  </defs>
  <path class="cls-1" d="M128.1,24.6c3.7,1.6,7.4,3.2,11.1,4.8,24.7,10.5,50.2,21.4,75.5,31.8,5.3,2.2,7.5,4,8.3,5.2,1.2,1.6,1.7,4.5,1.5,8.7v1c-2.2,29.4-7.9,54.3-17.6,76-10.7,24-26,43.7-46.7,60.2-7.8,6.2-17.3,11.4-27.3,16.9-1,.6-2.1,1.1-3.1,1.7-.6.3-1,.4-1.5.4-.9,0-2.1-.3-3.4-1-28.1-13.1-50.4-33.6-66.4-60.9-17.2-29.5-26.2-62.8-26.8-98.9,0-4.4,1.3-5.4,3.7-6.4,16.9-7.5,34.3-14.8,51.1-22,6.5-2.7,13-5.5,19.5-8.2,2.6-1.1,5.3-2.2,7.9-3.3,4.6-1.9,9.4-3.9,14.2-6M127.9,1.5c-2.4,0-4.9.5-7.4,1.7-7.7,3.5-15.6,6.6-23.3,9.9-23.7,10.1-47.4,19.9-70.9,30.4-11.6,5.1-17.3,15-17.1,27.5.6,39.1,10.1,76.1,29.9,110,18.2,31.1,43.6,54.7,76.4,70,4.3,2,8.7,3.1,13,3.1s8.4-1,12.4-3.2c11.5-6.4,23.4-12.6,33.6-20.8,49.2-39.2,68.7-92.9,72.8-153.6h0c1.3-21-9.4-30.4-23.9-36.2-29.3-12-58.5-24.5-87.6-36.9-2.7-1.1-5.2-1.7-7.8-1.7h0Z"/>
  <path class="cls-1" d="M114.1,144.3c-4.6-4.8-8.5-9.3-12.8-13.4-5.5-5.2-12.2-5.2-17-.4-5,5-5.1,11.3,0,16.9,7,7.7,14.1,15.2,21.4,22.7,6.2,6.3,14.7,5.6,20-1.5,4.5-6.1,8.9-12.2,13.4-18.4,12-16.6,24-33.1,35.9-49.7,4.3-6,4.3-10.4.6-14.9-5.6-6.7-13.5-6.6-18.8.5-10.1,13.6-20,27.3-30,40.9-4,5.5-8.1,11-12.7,17.3h0Z"/>
</svg>